<svg xmlns="http://www.w3.org/2000/svg" width="12" height="12" viewBox="0 0 12 12">
    <g fill="none" fill-rule="evenodd">
        <path d="M0 0H12V12H0z"/>
        <path fill="#03A0F0" d="M5.75 5.5h2.1c.105 0 .205-.055.255-.145.05-.09.055-.2.005-.295l-1.6-3c-.045-.1-.15-.16-.26-.16h-1.1c-.09 0-.175.04-.23.11-.055.07-.08.16-.06.25l.6 3c.025.14.145.24.29.24zm2.1 1h-2.1c-.145 0-.265.1-.295.24l-.6 3c-.02.09.005.18.06.25s.14.11.23.11h1.1c.11 0 .215-.06.265-.16l1.6-3c.05-.095.045-.205-.005-.295-.05-.09-.15-.145-.255-.145zM1.57 5.305c.045.12.16.195.28.195.035 0 .07-.005.105-.02.12-.045.19-.16.195-.28h.71l.075.14c.08.145.26.2.405.125.145-.08.2-.26.125-.405l-.8-1.5c-.05-.1-.155-.16-.265-.16H1.3c-.1 0-.19.05-.245.13-.055.08-.07.18-.035.275l.55 1.5zm1.77 1.23c-.145-.075-.325-.02-.405.125l-.075.14h-.71c0-.12-.075-.235-.195-.28-.16-.06-.33.02-.385.175l-.55 1.5c-.035.09-.02.195.035.275.055.08.145.13.245.13h1.1c.11 0 .215-.06.265-.16l.8-1.5c.08-.145.02-.325-.125-.405z"/>
        <path fill="#303131" d="M9.9 4.9H2.1C1.495 4.9 1 5.395 1 6c0 .605.495 1.1 1.1 1.1h7.8c.605 0 1.1-.495 1.1-1.1 0-.605-.495-1.1-1.1-1.1z"/>
        <path fill="#FFF" fill-opacity=".01" d="M9.9 4.9H2.1C1.495 4.9 1 5.395 1 6c0 .605.495 1.1 1.1 1.1h7.8c.605 0 1.1-.495 1.1-1.1 0-.605-.495-1.1-1.1-1.1z"/>
    </g>
</svg>
