<svg xmlns="http://www.w3.org/2000/svg" width="24" height="24" viewBox="0 0 24 24">
    <path fill="#BECADC" fill-rule="evenodd" d="M20.71 19.29l-5.04-5.04c2.06-2.76 1.85-6.69-.65-9.19C13.69 3.73 11.92 3 10.04 3c-1.88 0-3.65.73-4.98 2.06C3.73 6.39 3 8.16 3 10.04c0 1.88.73 3.65 2.06 4.98 1.33 1.33 3.1 2.06 4.98 2.06 1.54 0 3-.5 4.21-1.41l5.04 5.04c.2.19.45.29.71.29.26 0 .51-.1.71-.29.39-.39.39-1.03 0-1.42zM6.48 13.6C5.52 12.65 5 11.38 5 10.04c0-1.35.52-2.61 1.48-3.56C7.43 5.52 8.69 5 10.04 5s2.61.52 3.56 1.48c1.96 1.96 1.96 5.16 0 7.13-.95.95-2.22 1.48-3.56 1.48-1.34 0-2.61-.54-3.56-1.49z"/>
</svg>
