<svg xmlns="http://www.w3.org/2000/svg" width="12" height="12" viewBox="0 0 12 12">
    <g fill="none" fill-rule="evenodd">
        <path d="M0 0H12V12H0z"/>
        <path fill="#03A0F0" d="M7.5 7.065C8.397 6.503 9 5.453 9 4.25 9 2.455 7.657 1 6 1S3 2.455 3 4.25c0 1.203.603 2.253 1.5 2.815V7.9s.5.5 1.5.5 1.5-.5 1.5-.5v-.835z"/>
        <path fill="#303131" d="M4.5 7.793V7.9s.5.5 1.5.5 1.5-.5 1.5-.5v-.105l1.027.29c.904.255 1.589.995 1.773 1.915.09.453-.203.893-.656.984-.053.01-.108.016-.163.016H2.52c-.462 0-.837-.375-.837-.837 0-.055.005-.11.016-.164.184-.92.868-1.66 1.771-1.915L4.5 7.793z"/>
        <path fill="#005AAD" d="M7.5 7.065c-.441.277-.954.435-1.5.435s-1.059-.158-1.5-.435V7.9s.5.5 1.5.5 1.5-.5 1.5-.5v-.835z"/>
    </g>
</svg>
